<svg width="193" height="37" viewBox="0 0 193 37" fill="none" xmlns="http://www.w3.org/2000/svg">
<g clip-path="url(#clip0_1179_29)">
<path d="M98.8898 27.6233C98.5031 27.7976 98.0926 27.924 97.6652 27.9992C97.2344 28.0778 96.7765 28.1154 96.2846 28.1154C95.0193 28.1154 94.0491 27.7805 93.3741 27.1073C92.699 26.4376 92.3598 25.4364 92.3598 24.1106V16.5828H90.1006V14.1772H92.3598V10.1484H95.4298V14.1772H98.6693V16.5828H95.4298V23.8372C95.4298 24.5138 95.5519 24.999 95.7961 25.2929C96.0404 25.5867 96.4169 25.7337 96.9257 25.7337C97.1768 25.7337 97.4108 25.7063 97.6347 25.6483C97.8586 25.5936 98.0621 25.515 98.2419 25.4193L98.8864 27.6165L98.8898 27.6233Z" fill="#00235A"/>
<path d="M111.896 27.8181H108.927V25.7508H108.876C108.422 26.5401 107.852 27.1347 107.167 27.5379C106.482 27.9411 105.698 28.1427 104.813 28.1427C103.564 28.1427 102.54 27.7771 101.743 27.0458C100.942 26.3146 100.542 25.3202 100.542 24.0627C100.542 22.8053 100.945 21.8314 101.749 21.0591C102.553 20.2869 103.758 19.7846 105.355 19.5522L108.954 19.0704V18.7834C108.954 17.8642 108.717 17.1944 108.239 16.7673C107.76 16.3436 107.113 16.1317 106.295 16.1317C105.65 16.1317 104.992 16.2513 104.328 16.4905C103.659 16.7297 103.015 17.0851 102.384 17.5635L101.068 15.7183C101.885 15.0861 102.74 14.618 103.629 14.3138C104.517 14.0097 105.488 13.8594 106.539 13.8594C108.337 13.8594 109.68 14.3104 110.566 15.2125C111.451 16.1146 111.896 17.4712 111.896 19.2823V27.8215V27.8181ZM108.954 22.2551V21.1104L106.037 21.4999C105.176 21.6229 104.534 21.8553 104.107 22.2004C103.68 22.5456 103.469 23.0547 103.469 23.721C103.469 24.3874 103.669 24.8828 104.07 25.2553C104.47 25.6278 104.992 25.8157 105.637 25.8157C106.627 25.8157 107.425 25.4808 108.039 24.8145C108.649 24.1482 108.954 23.2939 108.954 22.2551Z" fill="#00235A"/>
<path d="M127.188 14.1836L122.683 20.9426L127.123 27.8177H123.575L121.238 23.7377C121.16 23.5908 121.071 23.4233 120.973 23.2388C120.875 23.0543 120.77 22.8424 120.658 22.6101H120.593C120.542 22.7126 120.471 22.8595 120.379 23.044C120.288 23.232 120.166 23.4541 120.013 23.7138L117.639 27.8211H114.104L118.697 21.0861L114.335 14.1836H117.896L120.206 18.472C120.318 18.6805 120.42 18.8786 120.508 19.07C120.6 19.2614 120.681 19.4459 120.759 19.6304H120.824C120.909 19.4322 121.007 19.2374 121.116 19.0461C121.224 18.8547 121.329 18.66 121.431 18.4618L123.819 14.1836H127.188Z" fill="url(#paint0_linear_1179_29)"/>
<path d="M86.3997 14.1836V27.6947H83.5943V16.6712H78.16V27.6947H75.3546V14.1836H86.4031H86.3997Z" fill="#00235A"/>
<path d="M61.623 35.7323V33.1695L64.4283 33.248H69.8626V27.6953H72.668V33.9144C72.668 34.919 71.8607 35.7323 70.8633 35.7323H61.6196H61.623Z" fill="#00235A"/>
<path d="M61.6263 27.6947V14.1836H64.4317V25.2071H69.866V14.1836H72.6714V27.6947H61.6229H61.6263Z" fill="#00235A"/>
<path d="M47.2093 8.25977H58.9531V11.0857H49.6788V16.5598H58.9531V19.3857H47.2093V8.25977Z" fill="#00235A"/>
<path d="M58.9499 27.6887H47.2061V24.8628H56.4804V19.3887H58.9499V27.6887Z" fill="#00235A"/>
<path d="M144.269 27.8178H140.656L137.831 22.8665C137.332 21.9986 136.877 21.4006 136.463 21.0657C136.05 20.7308 135.565 20.5566 135.005 20.5395H133.366V27.8178H130.232V9.17773H136.27C138.197 9.17773 139.71 9.6117 140.806 10.4762C141.901 11.3442 142.451 12.6324 142.451 14.3512C142.451 15.6326 142.101 16.7226 141.399 17.6145C140.697 18.5063 139.737 19.1624 138.516 19.5759V19.6271C138.981 19.8253 139.405 20.1329 139.788 20.5429C140.171 20.9564 140.531 21.445 140.867 22.0191L144.272 27.8178H144.269ZM133.366 11.7371V17.963H135.755C136.745 17.963 137.556 17.6521 138.187 17.0267C138.818 16.4014 139.137 15.6087 139.137 14.6485C139.137 13.6883 138.855 13.0151 138.299 12.5025C137.739 11.99 136.915 11.7371 135.822 11.7371H133.37H133.366Z" fill="#00235A"/>
<path d="M168.055 28.1462C165.932 28.1462 164.249 27.5072 163.011 26.2292C161.773 24.9512 161.152 23.2427 161.152 21.1002C161.159 18.8313 161.803 17.0544 163.082 15.7764C164.361 14.4984 166.101 13.8594 168.303 13.8594C170.42 13.8526 172.078 14.4779 173.279 15.7457C174.48 17.01 175.08 18.7219 175.08 20.8815C175.08 23.0411 174.45 24.8658 173.184 26.178C171.919 27.4901 170.213 28.1462 168.062 28.1462H168.055Z" fill="#00235A"/>
<path d="M186 27.6233C185.613 27.7976 185.203 27.924 184.775 27.9992C184.345 28.0778 183.887 28.1154 183.395 28.1154C182.129 28.1154 181.159 27.7805 180.484 27.1073C179.809 26.4376 179.47 25.4364 179.47 24.1106V16.5828H177.211V14.1772H179.47V10.1484H182.54V14.1772H185.779V16.5828H182.54V23.8372C182.54 24.5138 182.662 24.999 182.906 25.2929C183.151 25.5867 183.527 25.7337 184.036 25.7337C184.287 25.7337 184.521 25.7063 184.745 25.6483C184.969 25.5936 185.169 25.515 185.352 25.4193L185.997 27.6165L186 27.6233Z" fill="#00235A"/>
<path d="M167.685 24.8959L166.057 23.2557L168.33 20.9628L166 18.6187L167.628 16.9785L171.586 20.9628L167.682 24.8959H167.685Z" fill="white"/>
<path d="M146.99 26.2834C145.724 24.9713 145.093 23.2046 145.093 20.987C145.093 18.7693 145.694 17.1189 146.895 15.8511C148.095 14.5868 149.754 13.9581 151.871 13.9649C154.072 13.9649 155.813 14.6039 157.092 15.8819C158.37 17.1599 159.012 18.9333 159.022 21.2057C159.022 23.3447 158.401 25.0567 157.163 26.3347C155.925 27.6127 154.242 28.2517 152.119 28.2517C149.968 28.2517 148.262 27.5956 146.996 26.2834H146.99Z" fill="#00235A"/>
<path d="M148.584 21.0761L152.543 17.0918L154.171 18.732L151.84 21.0761L154.113 23.3689L152.485 25.0091L148.581 21.0761H148.584Z" fill="white"/>
<path d="M17.0221 29.5535C17.0221 31.4466 17.0391 33.3396 17.0154 35.2361C16.995 36.7943 16.0214 37.4025 14.6679 36.6679C11.1333 34.7475 7.61213 32.8032 4.09441 30.8486C3.11745 30.3053 2.85286 29.5262 3.29724 28.7471C3.73144 27.9885 4.53879 27.8211 5.51914 28.3576C7.88351 29.6492 10.2275 30.975 12.5885 32.2701C13.7724 32.9193 14.1896 32.6699 14.1964 31.3065C14.2066 28.8564 14.193 26.4064 14.2032 23.953C14.21 22.6681 14.6476 22.077 15.5601 22.0496C16.5099 22.0223 17.0154 22.6784 17.0221 23.9803C17.0323 25.8358 17.0221 27.6946 17.0221 29.5501H17.0187L17.0221 29.5535Z" fill="url(#paint1_linear_1179_29)"/>
<path d="M2.81553 20.3563C2.81553 21.6172 2.83588 22.8816 2.80874 24.1425C2.785 25.2496 2.2151 25.9022 1.33991 25.8339C0.318858 25.7553 -1.05284e-05 25.089 -1.05284e-05 24.1425C0.0101661 20.3188 -0.0135794 16.4916 0.00338169 12.6679C0.0101661 11.1268 1.00748 10.5357 2.37454 11.2772C5.8787 13.1805 9.36589 15.1077 12.8497 17.0418C13.8267 17.5817 14.1116 18.3642 13.6808 19.133C13.25 19.8985 12.4562 20.0522 11.4623 19.5157C9.09451 18.2309 6.74032 16.9188 4.36916 15.6374C3.2192 15.0155 2.84945 15.2444 2.83249 16.5668C2.81553 17.8277 2.8291 19.092 2.8291 20.3529H2.81213L2.81553 20.3563Z" fill="url(#paint2_linear_1179_29)"/>
<path d="M16.8287 14.4408C16.3199 15.2575 15.6347 15.3019 14.8307 14.8509C11.815 13.156 8.71117 11.6183 5.75994 9.80045C5.13577 9.48949 4.49465 9.21613 3.89422 8.86075C2.62214 8.109 2.63911 6.94036 3.9485 6.21253C7.14397 4.4459 10.3496 2.70662 13.5519 0.957078C13.9386 0.74522 14.3355 0.54703 14.7188 0.328338C15.5193 -0.126132 16.2792 -0.19789 16.8389 0.670045C17.341 1.4423 17.0085 2.3239 16.035 2.87405C14.9427 3.48912 13.8368 4.08028 12.7377 4.68168C11.5097 5.35143 10.275 6.01434 9.05039 6.69092C7.93096 7.3094 7.9106 7.61011 8.90452 8.4097C8.90452 8.4097 8.90452 8.4097 8.90792 8.4097C11.3333 9.72185 13.7724 11.0169 16.1842 12.3598C17.0323 12.8314 17.2799 13.7164 16.8287 14.4374V14.4408Z" fill="url(#paint3_linear_1179_29)"/>
<path d="M36.8869 24.2814C36.8869 25.2279 36.4459 25.7951 35.5131 25.8019C34.5836 25.8054 34.1189 25.2347 34.1121 24.2984C34.085 21.4042 34.0578 18.5065 34.0307 15.6123C33.5388 15.1168 33.0571 15.315 32.5415 15.602C30.2246 16.8937 27.8976 18.1716 25.5705 19.4462C24.4545 20.0613 23.603 19.9314 23.1858 19.0977C22.7821 18.2912 23.1145 17.5292 24.1695 16.9552C27.633 15.0758 31.1066 13.2101 34.5734 11.3409C35.9337 10.6404 36.8768 11.1188 36.8835 12.5813C36.9039 16.4802 36.8768 20.3825 36.8801 24.2814H36.8869Z" fill="url(#paint4_linear_1179_29)"/>
<path d="M33.7356 29.687C33.6948 30.1928 33.3726 30.4935 32.9757 30.7122C29.3291 32.7419 25.6858 34.7853 22.0189 36.7775C20.9571 37.3549 19.9394 36.7501 19.9292 35.561C19.8987 31.5459 19.9157 27.5343 19.9191 23.5192C19.9191 23.2254 19.9021 22.9178 20.1803 22.7094C20.7671 21.8996 21.432 21.7321 22.1986 22.4736C22.7889 22.8085 22.7414 23.3928 22.7448 23.9464C22.7448 26.4374 22.7278 28.9285 22.7414 31.4161C22.7482 32.6599 23.1383 32.9059 24.2238 32.3182C26.6289 31.0197 29.017 29.687 31.4085 28.3612C32.0021 28.0332 32.5958 27.9443 33.186 28.3202C33.6847 28.6346 33.7797 29.1369 33.7356 29.687Z" fill="url(#paint5_linear_1179_29)"/>
<path d="M33.0537 8.80313C29.3833 10.8568 25.6858 12.8694 22.0053 14.9026C21.2284 15.3331 20.567 15.1999 20.0887 14.4652C19.6477 13.7852 19.9326 12.8045 20.7094 12.3671C23.0297 11.0721 25.3703 9.81458 27.6906 8.52293C28.0909 8.30082 28.6676 8.16414 28.654 7.56615C28.6404 6.975 28.0638 6.86565 27.6635 6.63671C26.6458 6.04556 25.618 5.47149 24.5935 4.89059C23.2909 4.21059 21.9713 3.5511 20.6857 2.83693C19.9157 2.40638 19.6409 1.4086 20.0887 0.738853C20.5839 -0.0060673 21.2963 -0.0641574 22.0256 0.342474C23.1179 0.950711 24.2848 1.4291 25.2957 2.18769C27.8975 3.56818 30.5197 4.91793 33.0978 6.34284C34.2104 6.95792 34.1765 8.17439 33.0571 8.79971L33.0537 8.80313Z" fill="url(#paint6_linear_1179_29)"/>
</g>
<defs>
<linearGradient id="paint0_linear_1179_29" x1="114.11" y1="21.0038" x2="127.196" y2="21.0038" gradientUnits="userSpaceOnUse">
<stop stop-color="#1B75BB"/>
<stop offset="1" stop-color="#2B388F"/>
</linearGradient>
<linearGradient id="paint1_linear_1179_29" x1="3.0937" y1="29.5159" x2="17.0289" y2="29.5159" gradientUnits="userSpaceOnUse">
<stop stop-color="#1B75BB"/>
<stop offset="1" stop-color="#2B388F"/>
</linearGradient>
<linearGradient id="paint2_linear_1179_29" x1="-1.05285e-05" y1="18.4018" x2="13.8809" y2="18.4018" gradientUnits="userSpaceOnUse">
<stop stop-color="#1B75BB"/>
<stop offset="1" stop-color="#2B388F"/>
</linearGradient>
<linearGradient id="paint3_linear_1179_29" x1="2.95458" y1="7.5691" x2="17.073" y2="7.5691" gradientUnits="userSpaceOnUse">
<stop stop-color="#1B75BB"/>
<stop offset="1" stop-color="#2B388F"/>
</linearGradient>
<linearGradient id="paint4_linear_1179_29" x1="23.0263" y1="18.4142" x2="36.9005" y2="18.4142" gradientUnits="userSpaceOnUse">
<stop stop-color="#1B75BB"/>
<stop offset="1" stop-color="#2B388F"/>
</linearGradient>
<linearGradient id="paint5_linear_1179_29" x1="19.9123" y1="29.4991" x2="33.7457" y2="29.4991" gradientUnits="userSpaceOnUse">
<stop stop-color="#1B75BB"/>
<stop offset="1" stop-color="#2B388F"/>
</linearGradient>
<linearGradient id="paint6_linear_1179_29" x1="19.8682" y1="7.62083" x2="33.9119" y2="7.62083" gradientUnits="userSpaceOnUse">
<stop stop-color="#1B75BB"/>
<stop offset="1" stop-color="#2B388F"/>
</linearGradient>
<clipPath id="clip0_1179_29">
<rect width="193" height="37" fill="white"/>
</clipPath>
</defs>
</svg>
